<svg width="539" height="516" viewBox="0 0 539 516" fill="none" xmlns="http://www.w3.org/2000/svg">
<path d="M321.5 12L0 400V401.5L0.5 402.5H2L3 402L382.5 69L363 17.5L360.5 12.5L357 8L354 5L350 1.5L346.5 0.5H342L337 1L332.5 3L326.5 7L321.5 12Z" fill="white"/>
<path d="M394 103.5L18 432L25.5 434L425.5 186.5L394 103.5Z" fill="white"/>
<path d="M436.5 219.5L75.5 442L100.5 447L467.5 299.5L436.5 219.5Z" fill="white"/>
<path d="M478.5 331.5L165.5 457L184.5 461L507 407L478.5 331.5Z" fill="white"/>
<path d="M518 439.5L288 478L504 516H522L524 515.5L527.5 513.5L530.5 511L533.5 508L536 505L537.5 501.5L538.5 497L538 492.5L536.5 488L535 484L518 439.5Z" fill="white"/>
<path d="M321.5 12L0 400V401.5L0.5 402.5H2L3 402L382.5 69L363 17.5L360.5 12.5L357 8L354 5L350 1.5L346.5 0.5H342L337 1L332.5 3L326.5 7L321.5 12Z" stroke="black"/>
<path d="M394 103.5L18 432L25.5 434L425.5 186.5L394 103.5Z" stroke="black"/>
<path d="M436.5 219.5L75.5 442L100.5 447L467.5 299.5L436.5 219.5Z" stroke="black"/>
<path d="M478.5 331.5L165.5 457L184.5 461L507 407L478.5 331.5Z" stroke="black"/>
<path d="M518 439.5L288 478L504 516H522L524 515.5L527.5 513.5L530.5 511L533.5 508L536 505L537.5 501.5L538.5 497L538 492.5L536.5 488L535 484L518 439.5Z" stroke="black"/>
</svg>
