<svg width="0" height="0" class="hidden">
  <symbol xmlns="http://www.w3.org/2000/svg" viewBox="0 0 512 512" id="bandcamp_icon">
    <path d="M256,8C119,8,8,119,8,256S119,504,256,504,504,393,504,256,393,8,256,8Zm48.2,326.1h-181L207.9,178h181Z"></path>
  </symbol>
  <symbol role="img" xmlns="http://www.w3.org/2000/svg" id="beatport_icon" viewBox="0 0 24 24">
    <title>Beatport</title>
    <path d="M14.668 24c-3.857 0-6.935-3.039-6.935-6.974a6.98 6.98 0 011.812-4.714l-4.714 4.714-2.474-2.474 5.319-5.26c.72-.72 1.09-1.656 1.09-2.688V0h3.487v6.604c0 2.026-.72 3.74-2.123 5.143l-.156.156a6.945 6.945 0 014.694-1.812c3.955 0 6.975 3.136 6.975 6.935A6.943 6.943 0 0114.668 24zm0-10.714c-2.123 0-3.779 1.753-3.779 3.74 0 2.045 1.675 3.78 3.78 3.78a3.804 3.804 0 003.818-3.78c0-2.065-1.715-3.74-3.819-3.74Z" id="mainIconPathAttribute"></path>
  </symbol>
  <symbol id="email-icon" xmlns="http://www.w3.org/2000/svg" viewBox="0 0 122.88 88.86">
    <title>email</title>
    <path d="M7.05,0H115.83a7.07,7.07,0,0,1,7,7.05V81.81a7,7,0,0,1-1.22,4,2.78,2.78,0,0,1-.66,1,2.62,2.62,0,0,1-.66.46,7,7,0,0,1-4.51,1.65H7.05a7.07,7.07,0,0,1-7-7V7.05A7.07,7.07,0,0,1,7.05,0Zm-.3,78.84L43.53,40.62,6.75,9.54v69.3ZM49.07,45.39,9.77,83.45h103L75.22,45.39l-11,9.21h0a2.7,2.7,0,0,1-3.45,0L49.07,45.39Zm31.6-4.84,35.46,38.6V9.2L80.67,40.55ZM10.21,5.41,62.39,47.7,112.27,5.41Z"></path>
  </symbol>
  <symbol clip-rule="evenodd" fill-rule="evenodd" image-rendering="optimizeQuality" shape-rendering="geometricPrecision" text-rendering="geometricPrecision" xmlns="http://www.w3.org/2000/svg" viewBox="0 0 7600 7600" id="facebook_icon">
    <path d="M6175 0H1425C638 0 0 638 0 1425v4750c0 787 638 1425 1425 1425h4750c787 0 1425-638 1425-1425V1425C7600 638 6962 0 6175 0zm-193 4093h-711v2632H4083V4093h-461v-887h461v-565c0-740 308-1180 1180-1180h884v883h-514c-340 0-362 127-362 363l-1 498h808l-97 887z"></path>
  </symbol>
  <symbol xmlns="http://www.w3.org/2000/svg" viewBox="0 0 2476 2476" id="instagram_icon">
    <path d="M825.4 1238c0-227.9 184.7-412.7 412.6-412.7 227.9 0 412.7 184.8 412.7 412.7 0 227.9-184.8 412.7-412.7 412.7-227.9 0-412.6-184.8-412.6-412.7m-223.1 0c0 351.1 284.6 635.7 635.7 635.7s635.7-284.6 635.7-635.7-284.6-635.7-635.7-635.7S602.3 886.9 602.3 1238m1148-660.9c0 82 66.5 148.6 148.6 148.6 82 0 148.6-66.6 148.6-148.6s-66.5-148.5-148.6-148.5-148.6 66.5-148.6 148.5M737.8 2245.7c-120.7-5.5-186.3-25.6-229.9-42.6-57.8-22.5-99-49.3-142.4-92.6-43.3-43.3-70.2-84.5-92.6-142.3-17-43.6-37.1-109.2-42.6-229.9-6-130.5-7.2-169.7-7.2-500.3s1.3-369.7 7.2-500.3c5.5-120.7 25.7-186.2 42.6-229.9 22.5-57.8 49.3-99 92.6-142.4 43.3-43.3 84.5-70.2 142.4-92.6 43.6-17 109.2-37.1 229.9-42.6 130.5-6 169.7-7.2 500.2-7.2 330.6 0 369.7 1.3 500.3 7.2 120.7 5.5 186.2 25.7 229.9 42.6 57.8 22.4 99 49.3 142.4 92.6 43.3 43.3 70.1 84.6 92.6 142.4 17 43.6 37.1 109.2 42.6 229.9 6 130.6 7.2 169.7 7.2 500.3 0 330.5-1.2 369.7-7.2 500.3-5.5 120.7-25.7 186.3-42.6 229.9-22.5 57.8-49.3 99-92.6 142.3-43.3 43.3-84.6 70.1-142.4 92.6-43.6 17-109.2 37.1-229.9 42.6-130.5 6-169.7 7.2-500.3 7.2-330.5 0-369.7-1.2-500.2-7.2M727.6 7.5c-131.8 6-221.8 26.9-300.5 57.5-81.4 31.6-150.4 74-219.3 142.8C139 276.6 96.6 345.6 65 427.1 34.4 505.8 13.5 595.8 7.5 727.6 1.4 859.6 0 901.8 0 1238s1.4 378.4 7.5 510.4c6 131.8 26.9 221.8 57.5 300.5 31.6 81.4 73.9 150.5 142.8 219.3 68.8 68.8 137.8 111.1 219.3 142.8 78.8 30.6 168.7 51.5 300.5 57.5 132.1 6 174.2 7.5 510.4 7.5 336.3 0 378.4-1.4 510.4-7.5 131.8-6 221.8-26.9 300.5-57.5 81.4-31.7 150.4-74 219.3-142.8 68.8-68.8 111.1-137.9 142.8-219.3 30.6-78.7 51.6-168.7 57.5-300.5 6-132.1 7.4-174.2 7.4-510.4s-1.4-378.4-7.4-510.4c-6-131.8-26.9-221.8-57.5-300.5-31.7-81.4-74-150.4-142.8-219.3C2199.4 139 2130.3 96.6 2049 65c-78.8-30.6-168.8-51.6-300.5-57.5-132-6-174.2-7.5-510.4-7.5-336.3 0-378.4 1.4-510.5 7.5"></path>
  </symbol>
  <symbol id="menu" enable-background="new 0 0 24 24" xmlns="http://www.w3.org/2000/svg" viewBox="0 0 24 24">
    <g>
      <path d="m21.5 24h-19c-1.379 0-2.5-1.122-2.5-2.5v-19c0-1.378 1.121-2.5 2.5-2.5h19c1.379 0 2.5 1.122 2.5 2.5v19c0 1.378-1.121 2.5-2.5 2.5zm-19-23c-.827 0-1.5.673-1.5 1.5v19c0 .827.673 1.5 1.5 1.5h19c.827 0 1.5-.673 1.5-1.5v-19c0-.827-.673-1.5-1.5-1.5z"></path>
    </g>
    <g>
      <path d="m16.5 8h-9c-.276 0-.5-.224-.5-.5s.224-.5.5-.5h9c.276 0 .5.224.5.5s-.224.5-.5.5z"></path>
    </g>
    <g>
      <path d="m16.5 12.5h-9c-.276 0-.5-.224-.5-.5s.224-.5.5-.5h9c.276 0 .5.224.5.5s-.224.5-.5.5z"></path>
    </g>
    <g>
      <path d="m16.5 17h-9c-.276 0-.5-.224-.5-.5s.224-.5.5-.5h9c.276 0 .5.224.5.5s-.224.5-.5.5z"></path>
    </g>
  </symbol>
  <symbol xmlns="http://www.w3.org/2000/svg" viewBox="0 208.952 1048.713 581.696" id="soundcloud_icon">
    <path d="M0 686.216c0 13.014 4.718 22.854 14.152 29.524 9.435 6.669 19.52 9.027 30.256 7.076 10.085-1.952 17.161-5.531 21.229-10.736 4.066-5.205 6.1-13.827 6.1-25.864v-141.52c0-10.086-3.497-18.626-10.492-25.62-6.994-6.995-15.534-10.492-25.62-10.492-9.76 0-18.137 3.497-25.132 10.492C3.498 526.07 0 534.61 0 544.696v141.52zm112.24 60.512c0 9.436 3.335 16.511 10.004 21.229 6.67 4.718 15.21 7.076 25.62 7.076 10.736 0 19.438-2.359 26.108-7.076 6.669-4.717 10.004-11.793 10.004-21.229V416.84c0-9.76-3.498-18.138-10.492-25.132-6.995-6.994-15.535-10.492-25.62-10.492-9.76 0-18.138 3.498-25.132 10.492-6.995 6.995-10.492 15.372-10.492 25.132v329.888zm111.752 15.616c0 9.435 3.416 16.511 10.248 21.229 6.832 4.717 15.616 7.076 26.353 7.076 10.41 0 18.95-2.359 25.619-7.076 6.67-4.718 10.005-11.794 10.005-21.229V461.248c0-10.085-3.498-18.707-10.492-25.864-6.995-7.157-15.372-10.735-25.132-10.735-10.086 0-18.707 3.578-25.864 10.735s-10.736 15.779-10.736 25.864v301.096zm112.24 1.464c0 17.894 12.037 26.841 36.112 26.841 24.074 0 36.111-8.947 36.111-26.841v-488c0-27.328-8.296-42.781-24.888-46.36-10.736-2.603-21.31.488-31.72 9.272-10.411 8.784-15.616 21.146-15.616 37.088v488zm114.193 14.152V247.016c0-16.917 5.042-27.002 15.128-30.256 21.797-5.205 43.432-7.808 64.904-7.808 49.775 0 96.136 11.712 139.079 35.136 42.944 23.424 77.674 55.388 104.188 95.892 26.515 40.505 41.887 85.156 46.116 133.957 19.845-8.459 40.991-12.688 63.439-12.688 45.547 0 84.506 16.104 116.876 48.312 32.371 32.209 48.557 70.923 48.557 116.145 0 45.547-16.186 84.424-48.557 116.632-32.37 32.208-71.166 48.312-116.388 48.312l-424.56-.488c-2.929-.976-5.125-2.766-6.589-5.368s-2.193-4.882-2.193-6.834z"></path>
  </symbol>
  <symbol id="spotify_icon" xmlns="http://www.w3.org/2000/svg" viewBox="0 0 2931 2931">
    <path d="M1465.5 0C656.1 0 0 656.1 0 1465.5S656.1 2931 1465.5 2931 2931 2274.9 2931 1465.5C2931 656.2 2274.9.1 1465.5 0zm672.1 2113.6c-26.3 43.2-82.6 56.7-125.6 30.4-344.1-210.3-777.3-257.8-1287.4-141.3-49.2 11.3-98.2-19.5-109.4-68.7-11.3-49.2 19.4-98.2 68.7-109.4C1242.1 1697.1 1721 1752 2107.3 1988c43 26.5 56.7 82.6 30.3 125.6zm179.3-398.9c-33.1 53.8-103.5 70.6-157.2 37.6-393.8-242.1-994.4-312.2-1460.3-170.8-60.4 18.3-124.2-15.8-142.6-76.1-18.2-60.4 15.9-124.1 76.2-142.5 532.2-161.5 1193.9-83.3 1646.2 194.7 53.8 33.1 70.8 103.4 37.7 157.1zm15.4-415.6c-472.4-280.5-1251.6-306.3-1702.6-169.5-72.4 22-149-18.9-170.9-91.3-21.9-72.4 18.9-149 91.4-171 517.7-157.1 1378.2-126.8 1922 196 65.1 38.7 86.5 122.8 47.9 187.8-38.5 65.2-122.8 86.7-187.8 48z"></path>
  </symbol>
</svg>